<svg width="20" height="16" viewBox="0 0 20 16" fill="none" xmlns="http://www.w3.org/2000/svg">
<path d="M0.99325 2.02507H19.0068C19.5564 2.02507 20 1.5622 20 1.01254C20 0.45323 19.5661 0 19.0068 0H0.99325C0.433944 0 0 0.462874 0 1.01254C0 1.55256 0.443587 2.02507 0.99325 2.02507ZM0.99325 8.50916H19.0068C19.5564 8.50916 20 8.04629 20 7.49662C20 6.93732 19.5661 6.48409 19.0068 6.48409H0.99325C0.433944 6.48409 0 6.94696 0 7.49662C0 8.03664 0.443587 8.50916 0.99325 8.50916ZM0.99325 15.0029H19.0068C19.5564 15.0029 20 14.5304 20 13.9807C20 13.4214 19.5661 12.9682 19.0068 12.9682H0.99325C0.433944 12.9682 0 13.4311 0 13.9807C0 14.5207 0.443587 15.0029 0.99325 15.0029Z" fill="black"/>
</svg>
